<svg width="171" height="44" viewBox="0 0 171 44" fill="none" xmlns="http://www.w3.org/2000/svg">
<path d="M20.5039 19.1897L15.7286 6.57182L9.30892 23.3011L20.5039 19.1897ZM13.4941 -3.94232e-05H18.2695L31.6322 31.0188H25.3232V31.1291L22.4315 23.9211L6.17789 31.0188H0L13.4941 -3.94232e-05Z" fill="white"/>
<path d="M31.9834 24.0944V5.66853H36.4597V20.2164H43.5906V24.0944H31.9834Z" fill="white"/>
<path d="M45.6724 24.0944V5.66853H58.0605V9.41582H49.9667V12.9035H57.618V16.4687H49.9667V20.2944H58.5287V24.0944H45.6724Z" fill="white"/>
<path d="M72.5822 24.0944L68.5483 17.588L64.6704 24.0944H59.3613L65.8158 14.3608L59.8818 5.66853H65.2431L68.6781 11.394L72.0617 5.66853H77.2406L71.411 14.3608L78.0737 24.0944H72.5822Z" fill="white"/>
<path d="M87.312 10.5872L84.9698 16.9115H89.602L87.312 10.5872ZM92.257 24.0942L90.8254 20.4767H83.6945L82.3414 24.0942H77.5005L85.2298 5.66837H89.5502L97.2015 24.0942H92.257Z" fill="white"/>
<path d="M110.448 24.0944L103.031 12.0446H102.953L103.057 24.0944H98.7371V5.66853H103.812L111.203 17.6921H111.282L111.177 5.66853H115.497V24.0944H110.448Z" fill="white"/>
<path d="M131.867 14.8292C131.867 13.7883 131.698 12.9253 131.359 12.2398C131.021 11.5547 130.57 11.0081 130.007 10.6001C129.442 10.1928 128.8 9.90211 128.08 9.72835C127.36 9.555 126.619 9.46792 125.855 9.46792H123.643V20.2424H125.751C126.549 20.2424 127.317 20.1516 128.055 19.9695C128.792 19.7871 129.442 19.4876 130.007 19.0713C130.57 18.6549 131.021 18.1 131.359 17.4058C131.698 16.712 131.867 15.8532 131.867 14.8292ZM136.5 14.8292C136.5 16.4429 136.2 17.8355 135.602 19.0066C135.003 20.1773 134.213 21.1407 133.234 21.8954C132.253 22.6498 131.147 23.2055 129.915 23.5609C128.683 23.9167 127.434 24.0942 126.168 24.0942H119.297V5.66837H125.96C127.261 5.66837 128.544 5.82057 129.811 6.12372C131.077 6.4277 132.205 6.93074 133.195 7.63325C134.184 8.33618 134.981 9.27757 135.589 10.457C136.196 11.6372 136.5 13.0945 136.5 14.8292Z" fill="white"/>
<path d="M139.44 24.0944V5.66853H151.829V9.41582H143.734V12.9035H151.386V16.4687H143.734V20.2944H152.297V24.0944H139.44Z" fill="white"/>
<path d="M164.919 11.316C164.919 10.8826 164.827 10.531 164.644 10.2618C164.461 9.99309 164.225 9.7849 163.938 9.63727C163.65 9.49005 163.328 9.3901 162.97 9.33785C162.613 9.28601 162.268 9.25989 161.937 9.25989H159.557V13.5542H161.676C162.042 13.5542 162.417 13.5239 162.801 13.4629C163.184 13.4024 163.532 13.2942 163.846 13.1378C164.16 12.9815 164.417 12.7563 164.618 12.461C164.818 12.1662 164.919 11.7842 164.919 11.316ZM165.101 24.0944L161.1 16.7814H159.584V24.0944H155.237V5.66853H162.264C163.149 5.66853 164.012 5.75976 164.854 5.94182C165.695 6.12387 166.449 6.432 167.118 6.86578C167.786 7.29957 168.319 7.87186 168.718 8.5835C169.117 9.29472 169.317 10.1797 169.317 11.238C169.317 12.4871 168.979 13.5368 168.302 14.3869C167.625 15.2375 166.689 15.8442 165.492 16.2087L170.306 24.0944H165.101Z" fill="white"/>
<path d="M0.754966 42.7355H3.76864V43.3198H0.0976562V36.8537H0.754966V42.7355Z" fill="white"/>
<path d="M6.62732 41.0184H9.47677L8.05184 37.5846L6.62732 41.0184ZM5.67723 43.32H4.95605L7.75035 36.8539H8.38983L11.1663 43.32H10.4356L9.72311 41.6214H6.38057L5.67723 43.32Z" fill="white"/>
<path d="M17.6686 42.3609H17.6868V36.854H18.3445V43.3201H17.5226L13.76 37.7581H13.7417V43.3201H13.084V36.854H13.9059L17.6686 42.3609Z" fill="white"/>
<path d="M21.6871 42.7355H22.993C23.4799 42.7355 23.9049 42.6592 24.267 42.507C24.6294 42.3552 24.9293 42.1557 25.1665 41.909C25.4041 41.6622 25.5824 41.3806 25.701 41.0642C25.8196 40.7478 25.879 40.4218 25.879 40.0867C25.879 39.7521 25.8196 39.4265 25.701 39.1097C25.5824 38.7933 25.4041 38.5113 25.1665 38.2649C24.9293 38.0182 24.6294 37.8191 24.267 37.6665C23.9049 37.5147 23.4799 37.4384 22.993 37.4384H21.6871V42.7355ZM21.0298 36.8537H23.1755C23.5777 36.8537 23.9808 36.9209 24.3856 37.0548C24.7908 37.1888 25.1561 37.3911 25.4817 37.6624C25.8076 37.9332 26.0705 38.2712 26.2717 38.6759C26.4728 39.0807 26.5732 39.5514 26.5732 40.0867C26.5732 40.6288 26.4728 41.1007 26.2717 41.5025C26.0705 41.9044 25.8076 42.2407 25.4817 42.5115C25.1561 42.7827 24.7908 42.9851 24.3856 43.1191C23.9808 43.253 23.5777 43.3198 23.1755 43.3198H21.0298V36.8537Z" fill="white"/>
<path d="M32.0432 37.8951C31.903 37.7002 31.7234 37.5434 31.5045 37.4248C31.2851 37.3062 31.0205 37.2469 30.7099 37.2469C30.5515 37.2469 30.3901 37.2709 30.2259 37.3195C30.0613 37.3684 29.912 37.4431 29.7785 37.5434C29.6441 37.6442 29.5363 37.7703 29.4541 37.9225C29.372 38.0746 29.3306 38.2542 29.3306 38.4612C29.3306 38.6685 29.3704 38.839 29.4492 38.9729C29.528 39.1064 29.6329 39.2209 29.7631 39.315C29.8937 39.4096 30.0426 39.4871 30.2097 39.5481C30.3765 39.6091 30.551 39.67 30.7335 39.7306C30.9579 39.804 31.1839 39.8828 31.412 39.9682C31.6397 40.0536 31.8445 40.1644 32.0266 40.3016C32.2086 40.4385 32.3575 40.6118 32.4728 40.8221C32.5881 41.0319 32.6461 41.2986 32.6461 41.6212C32.6461 41.9439 32.5844 42.2225 32.4612 42.4569C32.338 42.6912 32.1784 42.8848 31.9818 43.0366C31.7852 43.1892 31.5604 43.3016 31.3083 43.3746C31.0553 43.4476 30.8011 43.4845 30.5457 43.4845C30.3503 43.4845 30.1558 43.4646 29.9609 43.4248C29.766 43.3854 29.5806 43.3261 29.404 43.2469C29.2273 43.1677 29.0627 43.0673 28.9109 42.9454C28.7587 42.8239 28.6243 42.6837 28.509 42.5253L29.0751 42.1052C29.2153 42.3366 29.4114 42.5298 29.664 42.6849C29.917 42.8405 30.2135 42.918 30.5548 42.918C30.719 42.918 30.8861 42.8923 31.057 42.8405C31.2274 42.7886 31.3809 42.7094 31.5181 42.6032C31.655 42.4967 31.7674 42.3656 31.8561 42.2101C31.944 42.055 31.9884 41.8738 31.9884 41.6668C31.9884 41.4417 31.944 41.2546 31.8561 41.1053C31.7674 40.956 31.6504 40.8312 31.5045 40.7308C31.3585 40.6305 31.1905 40.5467 31.0022 40.4795C30.8131 40.4128 30.6153 40.3456 30.4084 40.2788C30.1952 40.2116 29.9854 40.1357 29.7785 40.0503C29.5715 39.9653 29.3857 39.8542 29.2211 39.7173C29.0569 39.58 28.9242 39.4112 28.8238 39.2101C28.7234 39.0094 28.6733 38.7626 28.6733 38.4703C28.6733 38.1601 28.7355 37.8922 28.8603 37.6666C28.9851 37.4414 29.1481 37.2556 29.3488 37.1096C29.5499 36.9632 29.7722 36.8571 30.0157 36.7899C30.2591 36.7231 30.4996 36.6895 30.7373 36.6895C31.1756 36.6895 31.5501 36.7671 31.8607 36.9226C32.1713 37.0777 32.4056 37.2618 32.5636 37.475L32.0432 37.8951Z" fill="white"/>
<path d="M40.4728 42.2696C40.3633 42.4338 40.231 42.5893 40.0755 42.7362C39.9199 42.8825 39.7404 43.0115 39.5368 43.1227C39.3323 43.2338 39.1075 43.3221 38.8608 43.3868C38.6145 43.4519 38.3449 43.4843 38.0525 43.4843C37.5652 43.4843 37.1149 43.3989 36.701 43.2288C36.2867 43.0584 35.9305 42.8224 35.6323 42.5209C35.3341 42.2194 35.1011 41.862 34.9339 41.4477C34.7664 41.0338 34.6826 40.5801 34.6826 40.087C34.6826 39.5939 34.7676 39.1402 34.9385 38.7264C35.1085 38.3125 35.3449 37.9546 35.646 37.6531C35.9475 37.3516 36.3037 37.1156 36.7147 36.9452C37.1257 36.7747 37.5715 36.6893 38.0525 36.6893C38.2902 36.6893 38.5228 36.7142 38.7513 36.764C38.9794 36.8133 39.1942 36.883 39.3949 36.9726C39.5961 37.0621 39.7785 37.17 39.9432 37.2956C40.1074 37.4213 40.2442 37.5631 40.3541 37.7215L39.8063 38.1234C39.7387 38.0197 39.6491 37.9164 39.5368 37.8128C39.424 37.7095 39.2913 37.6183 39.1395 37.539C38.9869 37.4598 38.8214 37.396 38.6414 37.347C38.4618 37.2985 38.2686 37.2741 38.0616 37.2741C37.6415 37.2741 37.2658 37.3499 36.9336 37.5017C36.6019 37.6535 36.3203 37.8584 36.0889 38.1159C35.8575 38.3743 35.6812 38.6729 35.5593 39.0129C35.4374 39.3526 35.3764 39.7109 35.3764 40.087C35.3764 40.4631 35.439 40.8215 35.5639 41.1611C35.6887 41.5012 35.8666 41.7997 36.098 42.0577C36.3294 42.3156 36.611 42.5205 36.9428 42.6723C37.2749 42.8241 37.6478 42.9 38.0616 42.9C38.4332 42.9 38.7861 42.8237 39.1212 42.6715C39.4559 42.5197 39.7362 42.2758 39.9614 41.9412L40.4728 42.2696Z" fill="white"/>
<path d="M43.3678 41.0184H46.2173L44.7923 37.5846L43.3678 41.0184ZM42.4177 43.32H41.6965L44.4908 36.8539H45.1303L47.9068 43.32H47.1761L46.4636 41.6214H43.1211L42.4177 43.32Z" fill="white"/>
<path d="M50.4823 39.758H51.5966C52.1137 39.758 52.5064 39.6577 52.7743 39.4565C53.0422 39.2558 53.1766 38.9635 53.1766 38.5798C53.1766 38.178 53.0377 37.8844 52.7611 37.6986C52.4836 37.5128 52.0955 37.4203 51.5966 37.4203H50.4823V39.758ZM49.825 36.8538H51.6513C51.9798 36.8538 52.2784 36.8891 52.5463 36.9588C52.8142 37.0288 53.0439 37.1354 53.2359 37.2785C53.4275 37.4216 53.5751 37.6016 53.6788 37.8172C53.7821 38.0337 53.8339 38.2879 53.8339 38.5798C53.8339 38.8722 53.7804 39.1264 53.6743 39.3425C53.5673 39.559 53.4184 39.7385 53.2268 39.8812C53.0348 40.0247 52.8034 40.1325 52.5326 40.2055C52.2618 40.2785 51.9615 40.3154 51.6331 40.3154H50.4823V43.3199H49.825V36.8538Z" fill="white"/>
<path d="M56.7472 43.3198H56.0898V36.8537H56.7472V43.3198Z" fill="white"/>
<path d="M64.0167 42.3609H64.035V36.854H64.6927V43.3201H63.8707L60.1081 37.7581H60.0899V43.3201H59.4321V36.854H60.2541L64.0167 42.3609Z" fill="white"/>
<path d="M72.2817 38.0229C72.0565 37.7856 71.7886 37.6015 71.478 37.4705C71.1674 37.3394 70.8116 37.2739 70.4093 37.2739C69.9954 37.2739 69.6226 37.3502 69.2908 37.502C68.9587 37.6542 68.6775 37.859 68.4457 38.1174C68.2143 38.3758 68.0364 38.6752 67.9115 39.0157C67.7867 39.3561 67.7245 39.7149 67.7245 40.0914C67.7245 40.4684 67.7867 40.8271 67.9115 41.1676C68.0364 41.5081 68.2143 41.8058 68.4457 42.0609C68.6775 42.3163 68.9587 42.5199 69.2908 42.6717C69.6226 42.8239 69.9954 42.8998 70.4093 42.8998C70.7747 42.8998 71.1093 42.8604 71.4141 42.7812C71.7185 42.702 71.9649 42.6016 72.154 42.4797V40.5161H70.6469V39.9318H72.8113V42.8525C72.4584 43.0661 72.0777 43.2249 71.6696 43.3286C71.2619 43.4323 70.8389 43.4841 70.4002 43.4841C69.9133 43.4841 69.4625 43.3987 69.0487 43.2287C68.6348 43.0582 68.2785 42.8223 67.98 42.5208C67.6818 42.2193 67.4491 41.8618 67.2816 41.4475C67.114 41.0336 67.0303 40.5804 67.0303 40.0869C67.0303 39.5938 67.1153 39.1401 67.2861 38.7262C67.4566 38.3123 67.6926 37.9544 67.9941 37.6529C68.2951 37.3514 68.6514 37.1155 69.0623 36.945C69.4733 36.775 69.9191 36.6896 70.4002 36.6896C70.9177 36.6896 71.3685 36.7667 71.7521 36.9214C72.1353 37.0761 72.4642 37.2909 72.7383 37.5663L72.2817 38.0229Z" fill="white"/>
<path d="M81.5425 38.1417C81.5425 37.8738 81.4558 37.6544 81.2824 37.484C81.1087 37.3135 80.891 37.2281 80.6293 37.2281C80.3427 37.2281 80.1084 37.3181 79.9259 37.4976C79.7435 37.6772 79.6518 37.9194 79.6518 38.2238C79.6518 38.3395 79.6763 38.4598 79.7252 38.5846C79.7737 38.7094 79.8347 38.8264 79.9077 38.9363C79.9807 39.0457 80.0582 39.1461 80.1408 39.2378C80.2229 39.329 80.2942 39.3991 80.3552 39.4476C80.5011 39.3808 80.6442 39.3062 80.7844 39.2237C80.9246 39.1415 81.0506 39.0491 81.1634 38.945C81.2758 38.8417 81.3675 38.7231 81.4375 38.5892C81.5076 38.4552 81.5425 38.3059 81.5425 38.1417ZM80.1636 40.1418C79.7737 40.3185 79.4785 40.5267 79.2778 40.7672C79.0766 41.0077 78.9763 41.3018 78.9763 41.6484C78.9763 41.8309 79.0111 41.9989 79.0812 42.1507C79.1509 42.3033 79.2487 42.4327 79.3736 42.5392C79.498 42.6454 79.6427 42.7296 79.8073 42.7901C79.9716 42.8511 80.1449 42.8814 80.3278 42.8814C80.6807 42.8814 80.9747 42.8026 81.209 42.6442C81.4434 42.4857 81.664 42.2481 81.8713 41.9317L80.1636 40.1418ZM82.6842 41.8222L84.136 43.3197H83.2229L82.3097 42.3609C82.0418 42.7263 81.7523 42.9958 81.4421 43.1692C81.1315 43.3429 80.757 43.4292 80.3187 43.4292C80.0445 43.4292 79.7845 43.3898 79.5378 43.3106C79.291 43.2314 79.0766 43.1178 78.8942 42.9685C78.7113 42.8192 78.5665 42.6334 78.46 42.4111C78.3538 42.1888 78.3003 41.9317 78.3003 41.6393C78.3003 41.3959 78.338 41.1769 78.4148 40.982C78.4906 40.7871 78.5956 40.6121 78.7295 40.457C78.8635 40.3015 79.0219 40.163 79.2044 40.0415C79.3872 39.9195 79.5851 39.813 79.7982 39.7217C79.7008 39.6243 79.605 39.5177 79.5104 39.402C79.4159 39.2863 79.3321 39.166 79.2595 39.0412C79.1861 38.9164 79.1268 38.7841 79.0812 38.6439C79.0356 38.5041 79.0128 38.3607 79.0128 38.2147C79.0128 37.9712 79.0551 37.7548 79.1405 37.5661C79.2259 37.3778 79.3416 37.2177 79.4876 37.0867C79.6336 36.956 79.804 36.8569 79.9989 36.7902C80.1938 36.723 80.4008 36.6894 80.6202 36.6894C80.8333 36.6894 81.034 36.7213 81.2227 36.7852C81.4114 36.8495 81.5773 36.9436 81.7204 37.0684C81.8635 37.1933 81.9763 37.3459 82.0584 37.525C82.1405 37.7046 82.1819 37.9103 82.1819 38.1417C82.1819 38.3548 82.1405 38.5469 82.0584 38.7169C81.9763 38.8873 81.8668 39.0412 81.7299 39.1785C81.5926 39.3153 81.4375 39.4372 81.2638 39.5434C81.0904 39.65 80.9121 39.7487 80.7296 39.8403L82.2367 41.393L83.1316 39.8221H83.8715L82.6842 41.8222Z" fill="white"/>
<path d="M94.8031 42.2696C94.6936 42.4338 94.5613 42.5893 94.4058 42.7362C94.2507 42.8825 94.0707 43.0115 93.8671 43.1227C93.663 43.2338 93.4379 43.3221 93.1911 43.3868C92.9448 43.4519 92.6752 43.4843 92.3828 43.4843C91.8956 43.4843 91.4452 43.3989 91.0313 43.2288C90.617 43.0584 90.2608 42.8224 89.9626 42.5209C89.6644 42.2194 89.4314 41.862 89.2643 41.4477C89.0967 41.0338 89.0129 40.5801 89.0129 40.087C89.0129 39.5939 89.098 39.1402 89.2688 38.7264C89.4388 38.3125 89.6752 37.9546 89.9763 37.6531C90.2778 37.3516 90.634 37.1156 91.045 36.9452C91.456 36.7747 91.9018 36.6893 92.3828 36.6893C92.6205 36.6893 92.8535 36.7142 93.0816 36.764C93.3097 36.8133 93.5245 36.883 93.7253 36.9726C93.9264 37.0621 94.1089 37.17 94.2735 37.2956C94.4377 37.4213 94.5746 37.5631 94.6845 37.7215L94.1366 38.1234C94.069 38.0197 93.9799 37.9164 93.8671 37.8128C93.7543 37.7095 93.6216 37.6183 93.4698 37.539C93.3176 37.4598 93.1517 37.396 92.9721 37.347C92.7922 37.2985 92.5993 37.2741 92.3924 37.2741C91.9723 37.2741 91.5961 37.3499 91.264 37.5017C90.9322 37.6535 90.6506 37.8584 90.4192 38.1159C90.1878 38.3743 90.0116 38.6729 89.8896 39.0129C89.7677 39.3526 89.7067 39.7109 89.7067 40.087C89.7067 40.4631 89.7694 40.8215 89.8942 41.1611C90.019 41.5012 90.1969 41.7997 90.4283 42.0577C90.6597 42.3156 90.9413 42.5205 91.2731 42.6723C91.6053 42.8241 91.9781 42.9 92.3924 42.9C92.7635 42.9 93.1169 42.8237 93.4515 42.6715C93.7862 42.5197 94.0666 42.2758 94.2917 41.9412L94.8031 42.2696Z" fill="white"/>
<path d="M102.493 40.0916C102.493 39.7146 102.432 39.3563 102.311 39.0154C102.189 38.6749 102.012 38.3759 101.781 38.1176C101.549 37.8592 101.268 37.6543 100.936 37.5021C100.604 37.3504 100.231 37.2741 99.8169 37.2741C99.4031 37.2741 99.0298 37.3504 98.6985 37.5021C98.3663 37.6543 98.0847 37.8592 97.8533 38.1176C97.6219 38.3759 97.4456 38.6749 97.3237 39.0154C97.2018 39.3563 97.1412 39.7146 97.1412 40.0916C97.1412 40.4685 97.2018 40.8268 97.3237 41.1673C97.4456 41.5082 97.6219 41.8056 97.8533 42.061C98.0847 42.3165 98.3663 42.5197 98.6985 42.6719C99.0298 42.8237 99.4031 42.8995 99.8169 42.8995C100.231 42.8995 100.604 42.8237 100.936 42.6719C101.268 42.5197 101.549 42.3165 101.781 42.061C102.012 41.8056 102.189 41.5082 102.311 41.1673C102.432 40.8268 102.493 40.4685 102.493 40.0916ZM103.187 40.087C103.187 40.5801 103.102 41.0338 102.931 41.4477C102.761 41.862 102.525 42.2194 102.223 42.5209C101.922 42.822 101.566 43.0584 101.155 43.2284C100.744 43.3989 100.298 43.4843 99.8169 43.4843C99.3359 43.4843 98.8901 43.3989 98.4791 43.2284C98.0681 43.0584 97.7119 42.822 97.4104 42.5209C97.1093 42.2194 96.8729 41.862 96.7029 41.4477C96.532 41.0338 96.447 40.5801 96.447 40.087C96.447 39.5939 96.532 39.1402 96.7029 38.7264C96.8729 38.3121 97.1093 37.9546 97.4104 37.6531C97.7119 37.3516 98.0681 37.1156 98.4791 36.9452C98.8901 36.7747 99.3359 36.6893 99.8169 36.6893C100.298 36.6893 100.744 36.7747 101.155 36.9452C101.566 37.1156 101.922 37.3516 102.223 37.6531C102.525 37.9546 102.761 38.3121 102.931 38.7264C103.102 39.1402 103.187 39.5939 103.187 40.087Z" fill="white"/>
<path d="M110.109 42.3609H110.128V36.854H110.785V43.3201H109.963L106.2 37.7581H106.182V43.3201H105.524V36.854H106.347L110.109 42.3609Z" fill="white"/>
<path d="M116.602 37.8951C116.462 37.7002 116.283 37.5434 116.063 37.4248C115.844 37.3062 115.579 37.2469 115.269 37.2469C115.11 37.2469 114.949 37.2709 114.785 37.3195C114.621 37.3684 114.471 37.4431 114.337 37.5434C114.203 37.6442 114.096 37.7703 114.013 37.9225C113.931 38.0746 113.89 38.2542 113.89 38.4612C113.89 38.6685 113.93 38.839 114.008 38.9729C114.087 39.1064 114.192 39.2209 114.322 39.315C114.453 39.4096 114.602 39.4871 114.769 39.5481C114.936 39.6091 115.11 39.67 115.293 39.7306C115.517 39.804 115.743 39.8828 115.971 39.9682C116.199 40.0536 116.404 40.1644 116.586 40.3016C116.768 40.4385 116.917 40.6118 117.032 40.8221C117.147 41.0319 117.205 41.2986 117.205 41.6212C117.205 41.9439 117.144 42.2225 117.021 42.4569C116.897 42.6912 116.738 42.8848 116.541 43.0366C116.345 43.1892 116.12 43.3016 115.868 43.3746C115.615 43.4476 115.36 43.4845 115.105 43.4845C114.91 43.4845 114.715 43.4646 114.52 43.4248C114.325 43.3854 114.14 43.3261 113.963 43.2469C113.787 43.1677 113.622 43.0673 113.47 42.9454C113.318 42.8239 113.184 42.6837 113.068 42.5253L113.634 42.1052C113.775 42.3366 113.97 42.5298 114.223 42.6849C114.476 42.8405 114.773 42.918 115.114 42.918C115.278 42.918 115.445 42.8923 115.616 42.8405C115.786 42.7886 115.94 42.7094 116.077 42.6032C116.214 42.4967 116.327 42.3656 116.415 42.2101C116.503 42.055 116.548 41.8738 116.548 41.6668C116.548 41.4417 116.503 41.2546 116.415 41.1053C116.327 40.956 116.21 40.8312 116.063 40.7308C115.918 40.6305 115.75 40.5467 115.561 40.4795C115.372 40.4128 115.175 40.3456 114.968 40.2788C114.755 40.2116 114.544 40.1357 114.337 40.0503C114.13 39.9653 113.945 39.8542 113.78 39.7173C113.616 39.58 113.483 39.4112 113.383 39.2101C113.283 39.0094 113.233 38.7626 113.233 38.4703C113.233 38.1601 113.295 37.8922 113.42 37.6666C113.544 37.4414 113.707 37.2556 113.908 37.1096C114.109 36.9632 114.331 36.8571 114.575 36.7899C114.818 36.7231 115.059 36.6895 115.297 36.6895C115.735 36.6895 116.109 36.7671 116.42 36.9226C116.731 37.0777 116.965 37.2618 117.123 37.475L116.602 37.8951Z" fill="white"/>
<path d="M121.498 43.3199H120.84V37.4385H118.676V36.8538H123.662V37.4385H121.498V43.3199Z" fill="white"/>
<path d="M126.256 39.7307H127.397C127.927 39.7307 128.335 39.6349 128.621 39.4429C128.908 39.2513 129.05 38.9635 129.05 38.5799C129.05 38.3667 129.011 38.1872 128.932 38.0412C128.852 37.8952 128.743 37.7762 128.603 37.685C128.463 37.5937 128.292 37.527 128.091 37.4843C127.89 37.4415 127.668 37.4204 127.425 37.4204H126.256V39.7307ZM126.256 43.32H125.598V36.8539H127.498C127.814 36.8539 128.108 36.8846 128.379 36.9451C128.65 37.0061 128.884 37.1052 129.082 37.2421C129.28 37.3793 129.434 37.5572 129.544 37.7762C129.653 37.9956 129.708 38.2635 129.708 38.5799C129.708 38.8175 129.665 39.0336 129.58 39.2285C129.495 39.4234 129.379 39.5926 129.233 39.7353C129.087 39.8784 128.913 39.9924 128.713 40.0778C128.511 40.1628 128.292 40.218 128.055 40.2421L129.945 43.32H129.142L127.352 40.2968H126.256V43.32Z" fill="white"/>
<path d="M134.421 43.4843C133.933 43.4843 133.535 43.4006 133.224 43.2334C132.914 43.0659 132.667 42.854 132.484 42.5985C132.302 42.3427 132.175 42.0644 132.106 41.7629C132.036 41.4614 132 41.1769 132 40.909V36.854H132.658V40.8356C132.658 41.0977 132.688 41.3519 132.749 41.5983C132.81 41.845 132.909 42.0644 133.046 42.256C133.184 42.4476 133.364 42.6031 133.59 42.7217C133.815 42.8403 134.092 42.8996 134.421 42.8996C134.75 42.8996 135.027 42.8403 135.252 42.7217C135.477 42.6031 135.658 42.4476 135.795 42.256C135.932 42.0644 136.031 41.845 136.092 41.5983C136.153 41.3519 136.184 41.0977 136.184 40.8356V36.854H136.841V40.909C136.841 41.1769 136.806 41.4614 136.736 41.7629C136.666 42.0644 136.539 42.3427 136.357 42.5985C136.175 42.854 135.926 43.0659 135.613 43.2334C135.299 43.4006 134.902 43.4843 134.421 43.4843Z" fill="white"/>
<path d="M144.932 42.2696C144.823 42.4338 144.69 42.5893 144.535 42.7362C144.38 42.8825 144.2 43.0115 143.996 43.1227C143.792 43.2338 143.567 43.3221 143.321 43.3868C143.074 43.4519 142.804 43.4843 142.512 43.4843C142.025 43.4843 141.574 43.3989 141.16 43.2288C140.746 43.0584 140.39 42.8224 140.092 42.5209C139.793 42.2194 139.561 41.862 139.394 41.4477C139.226 41.0338 139.142 40.5801 139.142 40.087C139.142 39.5939 139.227 39.1402 139.398 38.7264C139.568 38.3125 139.805 37.9546 140.106 37.6531C140.407 37.3516 140.763 37.1156 141.174 36.9452C141.585 36.7747 142.031 36.6893 142.512 36.6893C142.749 36.6893 142.983 36.7142 143.211 36.764C143.439 36.8133 143.654 36.883 143.855 36.9726C144.056 37.0621 144.238 37.17 144.403 37.2956C144.567 37.4213 144.704 37.5631 144.814 37.7215L144.266 38.1234C144.198 38.0197 144.109 37.9164 143.996 37.8128C143.884 37.7095 143.751 37.6183 143.599 37.539C143.447 37.4598 143.281 37.396 143.101 37.347C142.922 37.2985 142.728 37.2741 142.521 37.2741C142.101 37.2741 141.726 37.3499 141.393 37.5017C141.062 37.6535 140.78 37.8584 140.549 38.1159C140.317 38.3743 140.141 38.6729 140.019 39.0129C139.897 39.3526 139.836 39.7109 139.836 40.087C139.836 40.4631 139.898 40.8215 140.024 41.1611C140.148 41.5012 140.326 41.7997 140.558 42.0577C140.789 42.3156 141.07 42.5205 141.402 42.6723C141.734 42.8241 142.107 42.9 142.521 42.9C142.893 42.9 143.246 42.8237 143.581 42.6715C143.916 42.5197 144.196 42.2758 144.421 41.9412L144.932 42.2696Z" fill="white"/>
<path d="M149.051 43.3199H148.393V37.4385H146.229V36.8538H151.216V37.4385H149.051V43.3199Z" fill="white"/>
<path d="M153.809 43.3198H153.151V36.8537H153.809V43.3198Z" fill="white"/>
<path d="M162.193 40.0916C162.193 39.7146 162.132 39.3563 162.01 39.0154C161.888 38.6749 161.712 38.3759 161.48 38.1176C161.249 37.8592 160.967 37.6543 160.636 37.5021C160.304 37.3504 159.931 37.2741 159.517 37.2741C159.103 37.2741 158.73 37.3504 158.398 37.5021C158.066 37.6543 157.785 37.8592 157.553 38.1176C157.322 38.3759 157.145 38.6749 157.023 39.0154C156.902 39.3563 156.841 39.7146 156.841 40.0916C156.841 40.4685 156.902 40.8268 157.023 41.1673C157.145 41.5082 157.322 41.8056 157.553 42.061C157.785 42.3165 158.066 42.5197 158.398 42.6719C158.73 42.8237 159.103 42.8995 159.517 42.8995C159.931 42.8995 160.304 42.8237 160.636 42.6719C160.967 42.5197 161.249 42.3165 161.48 42.061C161.712 41.8056 161.888 41.5082 162.01 41.1673C162.132 40.8268 162.193 40.4685 162.193 40.0916ZM162.887 40.087C162.887 40.5801 162.802 41.0338 162.632 41.4477C162.461 41.862 162.225 42.2194 161.924 42.5209C161.622 42.822 161.266 43.0584 160.855 43.2284C160.444 43.3989 159.998 43.4843 159.517 43.4843C159.036 43.4843 158.59 43.3989 158.179 43.2284C157.768 43.0584 157.412 42.822 157.111 42.5209C156.81 42.2194 156.573 41.862 156.403 41.4477C156.232 41.0338 156.147 40.5801 156.147 40.087C156.147 39.5939 156.232 39.1402 156.403 38.7264C156.573 38.3121 156.81 37.9546 157.111 37.6531C157.412 37.3516 157.768 37.1156 158.179 36.9452C158.59 36.7747 159.036 36.6893 159.517 36.6893C159.998 36.6893 160.444 36.7747 160.855 36.9452C161.266 37.1156 161.622 37.3516 161.924 37.6531C162.225 37.9546 162.461 38.3121 162.632 38.7264C162.802 39.1402 162.887 39.5939 162.887 40.087Z" fill="white"/>
<path d="M169.809 42.3609H169.828V36.854H170.485V43.3201H169.663L165.9 37.7581H165.882V43.3201H165.225V36.854H166.047L169.809 42.3609Z" fill="white"/>
<path d="M171 31.1279H25.3223V30.7132H171V31.1279Z" fill="white"/>
</svg>
